<svg width="20" height="20" viewBox="0 0 20 20" fill="none" xmlns="http://www.w3.org/2000/svg">
<path d="M4.89539 1.99701C4.82567 1.90445 4.7375 1.82813 4.63673 1.77313C4.53597 1.71813 4.42491 1.68569 4.31094 1.67799C4.19698 1.67028 4.08271 1.68747 3.97572 1.72843C3.86874 1.76938 3.77149 1.83316 3.69044 1.91552L2.45746 3.16809C1.88151 3.75383 1.66673 4.58529 1.91429 5.31658C2.94179 8.34346 4.62213 11.0947 6.83066 13.3661C9.03231 15.6445 11.7071 17.3865 14.6566 18.4627C15.3692 18.722 16.1835 18.5091 16.7606 17.9246L17.9936 16.6732C18.0747 16.5909 18.1379 16.492 18.1788 16.3828C18.2197 16.2737 18.2374 16.1569 18.2308 16.0402C18.2242 15.9236 18.1934 15.8097 18.1405 15.7061C18.0876 15.6025 18.0137 15.5117 17.9238 15.4396L15.1933 13.2485C15.0973 13.1717 14.9855 13.1181 14.8663 13.092C14.7471 13.0658 14.6236 13.0677 14.5052 13.0974L11.902 13.7514C11.5545 13.8388 11.1908 13.8326 10.8464 13.7334C10.502 13.6343 10.1886 13.4456 9.93665 13.1856L7.0325 10.1882C6.78036 9.92843 6.59829 9.60623 6.50401 9.253C6.40973 8.89977 6.40647 8.52756 6.49453 8.17262L7.15617 5.51427C7.18624 5.39336 7.18909 5.26705 7.16449 5.14487C7.1399 5.02268 7.0885 4.90781 7.01419 4.80893L4.89539 1.99701ZM2.79767 0.995673C3.00634 0.783826 3.25666 0.619819 3.53201 0.514543C3.80735 0.409267 4.10142 0.365131 4.39469 0.385066C4.68796 0.405001 4.97372 0.48855 5.23299 0.630167C5.49227 0.771783 5.71912 0.968225 5.89849 1.20645L8.01729 4.01715C8.40585 4.53273 8.54085 5.2028 8.38389 5.83401L7.72344 8.49237C7.68929 8.63005 7.69052 8.77443 7.72699 8.91148C7.76346 9.04853 7.83395 9.17359 7.93161 9.27453L10.8369 12.2719C10.9349 12.3729 11.0567 12.4462 11.1906 12.4846C11.3244 12.5231 11.4658 12.5254 11.6008 12.4914L14.2028 11.8374C14.5079 11.7607 14.8259 11.7559 15.133 11.8235C15.4401 11.891 15.7281 12.0292 15.9753 12.2274L18.7046 14.4185C19.6858 15.2062 19.77 16.6951 18.8852 17.5918L17.6522 18.8432C16.7698 19.7387 15.4549 20.1282 14.2324 19.6822C11.1036 18.5411 8.26606 16.6939 5.93039 14.2774C3.58822 11.868 1.8063 8.94984 0.716767 5.73939C0.292042 4.48609 0.68348 3.14259 1.56588 2.24703L2.79886 0.995678L2.79767 0.995673Z" fill="#C4A473"/>
</svg>
