<svg width="45" height="27" viewBox="0 0 45 27" fill="none" xmlns="http://www.w3.org/2000/svg">
<path d="M11.5641 0.511815V1.23181C10.7481 1.25581 10.1241 1.35181 9.69212 1.51981C9.28412 1.66381 9.00812 1.95181 8.86412 2.38381C8.72012 2.79181 8.64812 3.43981 8.64812 4.32781V22.6158C8.64812 23.3598 8.69612 23.9118 8.79212 24.2718C8.91212 24.6318 9.12812 24.8718 9.44012 24.9918C9.77612 25.1118 10.2681 25.1718 10.9161 25.1718H12.6801C13.7841 25.1718 14.7801 24.8358 15.6681 24.1638C16.5801 23.4918 17.3361 22.5558 17.9361 21.3558C18.5601 20.1318 18.9921 18.7278 19.2321 17.1438H20.0601C19.9881 17.9598 19.9521 19.0158 19.9521 20.3118C19.9521 20.8638 19.9641 21.6678 19.9881 22.7238C20.0121 23.7798 20.0841 24.8718 20.2041 25.9998C18.9801 25.9518 17.6001 25.9278 16.0641 25.9278C14.5281 25.9038 13.1601 25.8918 11.9601 25.8918C11.1441 25.8918 10.0641 25.8918 8.72012 25.8918C7.37612 25.8918 5.94812 25.9038 4.43612 25.9278C2.92412 25.9278 1.52012 25.9518 0.224121 25.9998V25.2798C0.992121 25.2318 1.56812 25.1358 1.95212 24.9918C2.33612 24.8478 2.58812 24.5598 2.70812 24.1278C2.85212 23.6958 2.92412 23.0478 2.92412 22.1838V4.32781C2.92412 3.43981 2.85212 2.79181 2.70812 2.38381C2.58812 1.95181 2.32412 1.66381 1.91612 1.51981C1.53212 1.35181 0.968121 1.25581 0.224121 1.23181V0.511815C0.824121 0.535814 1.62812 0.559814 2.63612 0.583814C3.66812 0.607813 4.76012 0.619813 5.91212 0.619813C6.96812 0.619813 8.00012 0.607813 9.00812 0.583814C10.0401 0.559814 10.8921 0.535814 11.5641 0.511815Z" fill="black"/>
<path d="M35.2999 0.0078125C36.8839 0.0078125 38.1799 0.247813 39.1879 0.727814C40.2199 1.18381 41.1319 1.72381 41.9239 2.34781C42.4039 2.70781 42.7639 2.75581 43.0039 2.49181C43.2679 2.20381 43.4479 1.54381 43.5439 0.511815H44.3719C44.3239 1.44781 44.2879 2.58781 44.2639 3.93181C44.2399 5.25181 44.2279 7.01581 44.2279 9.22381H43.3999C43.2799 8.11981 43.1239 7.18381 42.9319 6.41581C42.7399 5.62381 42.4759 4.92781 42.1399 4.32781C41.8039 3.72781 41.3239 3.18781 40.6999 2.70781C40.0999 2.10781 39.4039 1.66381 38.6119 1.37581C37.8199 1.08781 36.9919 0.943813 36.1279 0.943813C34.8319 0.943813 33.7279 1.29181 32.8159 1.98781C31.9039 2.65981 31.1599 3.58381 30.5839 4.75981C30.0319 5.93581 29.6239 7.26781 29.3599 8.75581C29.0959 10.2198 28.9639 11.7438 28.9639 13.3278C28.9639 14.9358 29.0959 16.4838 29.3599 17.9718C29.6479 19.4358 30.0799 20.7438 30.6559 21.8958C31.2559 23.0478 32.0239 23.9598 32.9599 24.6318C33.8959 25.3038 34.9999 25.6398 36.2719 25.6398C37.0639 25.6398 37.8559 25.4958 38.6479 25.2078C39.4639 24.8958 40.1599 24.4518 40.7359 23.8758C41.6719 23.1558 42.3079 22.2678 42.6439 21.2118C42.9799 20.1318 43.2319 18.7038 43.3999 16.9278H44.2279C44.2279 19.2078 44.2399 21.0558 44.2639 22.4718C44.2879 23.8638 44.3239 25.0398 44.3719 25.9998H43.5439C43.4479 24.9678 43.2799 24.3198 43.0399 24.0558C42.8239 23.7918 42.4519 23.8278 41.9239 24.1638C41.0359 24.7878 40.0879 25.3398 39.0799 25.8198C38.0959 26.2758 36.8239 26.5038 35.2639 26.5038C32.7199 26.5038 30.4879 25.9878 28.5679 24.9558C26.6719 23.9238 25.1959 22.4358 24.1399 20.4918C23.0839 18.5478 22.5559 16.2078 22.5559 13.4718C22.5559 10.7838 23.0959 8.43181 24.1759 6.41581C25.2799 4.39981 26.7799 2.82781 28.6759 1.69981C30.5959 0.571813 32.8039 0.0078125 35.2999 0.0078125Z" fill="black"/>
</svg>
